<?xml version="1.0"?>
<svg xmlns="http://www.w3.org/2000/svg" xmlns:xlink="http://www.w3.org/1999/xlink" version="1.1" id="Capa_1" x="0px" y="0px" viewBox="0 0 512 512" style="enable-background:new 0 0 512 512;" xml:space="preserve" width="512px" height="512px" class=""><g><g>
	<g>
		<path style="fill:#DC5151" d="M185.39,370.759h79.448c9.366,0.003,18.348-3.717,24.971-10.339    c6.622-6.623,10.342-15.605,10.339-24.971V35.31c0.003-9.366-3.717-18.349-10.339-24.971S274.204-0.003,264.839,0H35.321    C25.956-0.003,16.973,3.717,10.35,10.339S0.008,25.945,0.011,35.31v300.138c-0.003,9.366,3.717,18.348,10.339,24.971    c6.623,6.622,15.605,10.342,24.971,10.339H185.39z" data-original="#CC4B4C" class="" data-old_color="#DB5050"/>
		<rect x="0.011" y="88.276" style="fill:#E6E7E8" width="300.138" height="185.379" data-original="#E6E7E8" class="" data-old_color="#EBEBEB"/>
		<path style="fill:#BDC3C7;" d="M185.39,370.759v26.483c-0.029,9.739-7.916,17.626-17.655,17.655h-35.31    c-9.739-0.029-17.627-7.916-17.655-17.655v-26.483H185.39z" data-original="#BDC3C7" class=""/>
		<path style="fill:#D1D4D1;" d="M450.218,287.691v153.688c-0.052,38.981-31.639,70.569-70.621,70.621H203.046    c-38.981-0.052-70.569-31.639-70.621-70.621v-26.483h35.31v26.483c-0.003,9.366,3.717,18.348,10.339,24.971    c6.623,6.623,15.605,10.342,24.971,10.339h176.552c9.366,0.003,18.348-3.717,24.971-10.339    c6.623-6.623,10.342-15.605,10.339-24.971V287.691c6.003,4.502,11.917,8.739,17.655,12.447    C438.301,296.43,444.215,292.193,450.218,287.691z" data-original="#D1D4D1" class=""/>
		<g>
			<path style="fill:#BDC3C7;" d="M52.977,123.586c4.875,0,8.828-3.952,8.828-8.828V97.103c0-4.875-3.952-8.828-8.828-8.828     s-8.828,3.952-8.828,8.828v17.655C44.149,119.634,48.101,123.586,52.977,123.586z" data-original="#BDC3C7" class=""/>
			<path style="fill:#BDC3C7;" d="M52.977,273.655c4.875,0,8.828-3.952,8.828-8.828V150.069c0-4.875-3.952-8.828-8.828-8.828     s-8.828,3.952-8.828,8.828v114.759C44.149,269.703,48.101,273.655,52.977,273.655z" data-original="#BDC3C7" class=""/>
			<path style="fill:#BDC3C7;" d="M247.183,88.276c-4.875,0-8.828,3.952-8.828,8.828v17.655c0,4.875,3.952,8.828,8.828,8.828     s8.828-3.952,8.828-8.828V97.103C256.011,92.228,252.059,88.276,247.183,88.276z" data-original="#BDC3C7" class=""/>
			<path style="fill:#BDC3C7;" d="M247.183,141.241c-4.875,0-8.828,3.952-8.828,8.828v114.759c0,4.875,3.952,8.828,8.828,8.828     s8.828-3.952,8.828-8.828V150.069C256.011,145.194,252.059,141.241,247.183,141.241z" data-original="#BDC3C7" class=""/>
		</g>
		<g>
			<path style="fill:#A73C3D" d="M181.808,190.898l-0.116-0.262l-23.547-52.981c-1.416-3.187-4.577-5.241-8.065-5.241     c-3.488,0-6.648,2.054-8.065,5.241l-23.547,52.981l-0.116,0.262l-11.646,26.205c-1.981,4.454,0.024,9.67,4.478,11.651     s9.67-0.024,11.651-4.478l9.441-21.241h35.609l9.441,21.241c1.281,2.881,4.002,4.86,7.138,5.191     c3.136,0.331,6.21-1.036,8.065-3.586c1.855-2.55,2.208-5.896,0.927-8.777L181.808,190.898z M140.123,185.379l9.957-22.401     l9.957,22.401H140.123z" data-original="#802F34" class="active-path" data-old_color="#A53B3C"/>
			<path style="fill:#A73C3D" d="M61.804,308.966H44.149c-4.875,0-8.828,3.952-8.828,8.828s3.952,8.828,8.828,8.828h17.655     c4.875,0,8.828-3.952,8.828-8.828S66.679,308.966,61.804,308.966z" data-original="#802F34" class="active-path" data-old_color="#A53B3C"/>
			<path style="fill:#A73C3D" d="M185.39,308.966H97.114c-4.875,0-8.828,3.952-8.828,8.828s3.952,8.828,8.828,8.828h88.276     c4.875,0,8.828-3.952,8.828-8.828S190.266,308.966,185.39,308.966z" data-original="#802F34" class="active-path" data-old_color="#A53B3C"/>
		</g>
	</g>
	<path style="fill:#DC5151" d="M499.476,234.284c-9.092,19.068-29.131,38.135-49.258,53.407   c-6.003,4.502-11.917,8.739-17.655,12.447c-5.738-3.708-11.652-7.945-17.655-12.447c-20.127-15.272-40.166-34.339-49.258-53.407   c-16.684-32.839-16.684-65.766,0-82.273c16.772-16.419,50.229-16.419,66.913,16.508c16.684-32.927,50.141-32.927,66.913-16.508   C516.16,168.519,516.16,201.446,499.476,234.284z" data-original="#CC4B4C" class="" data-old_color="#DB5050"/>
</g></g> </svg>
